<svg xmlns="http://www.w3.org/2000/svg" viewBox="0 0 618 440" width="618" height="440" style="background: white; font-family: Arial, sans-serif;"><style>
      .line { stroke: #cbd5e1; stroke-width: 1; }
      .text-sm { font-size: 12px; fill: #334155; }
      .text-md { font-size: 14px; fill: #1e293b; font-weight: bold; }
      .text-req { font-size: 13px; fill: #334155; }
      .bg-header { fill: #f8fafc; }
      .bg-cell { fill: #ffffff; }
    </style><g id="roof"><line x1="298" y1="96" x2="394" y2="0" class="line" /><line x1="298" y1="96" x2="298" y2="96" class="line" /><line x1="362" y1="96" x2="426" y2="32" class="line" /><line x1="362" y1="96" x2="330" y2="64" class="line" /><line x1="426" y1="96" x2="458" y2="64" class="line" /><line x1="426" y1="96" x2="362" y2="32" class="line" /><line x1="490" y1="96" x2="490" y2="96" class="line" /><line x1="490" y1="96" x2="394" y2="0" class="line" /><text x="362" y="69" text-anchor="middle" class="text-md">-3</text><text x="426" y="69" text-anchor="middle" class="text-md">9</text></g><g id="headers"><rect x="298" y="96" width="64" height="200" class="bg-header line" /><text x="330" y="116" text-anchor="middle" class="text-md">↓</text><text x="334" y="251" transform="rotate(-90 334 251)" class="text-sm">Peso</text><text x="330" y="276" text-anchor="middle" class="text-sm" fill="#64748b">kg</text><text x="330" y="291" text-anchor="middle" class="text-md">< 2.5</text><rect x="362" y="96" width="64" height="200" class="bg-header line" /><text x="394" y="116" text-anchor="middle" class="text-md">↑</text><text x="398" y="251" transform="rotate(-90 398 251)" class="text-sm">Resistencia material</text><text x="394" y="276" text-anchor="middle" class="text-sm" fill="#64748b">MPa</text><text x="394" y="291" text-anchor="middle" class="text-md">> 250</text><rect x="426" y="96" width="64" height="200" class="bg-header line" /><text x="458" y="116" text-anchor="middle" class="text-md">↓</text><text x="462" y="251" transform="rotate(-90 462 251)" class="text-sm">Costo de producción</text><text x="458" y="276" text-anchor="middle" class="text-sm" fill="#64748b">USD</text><text x="458" y="291" text-anchor="middle" class="text-md">< 15</text></g><g id="requirements"><rect x="0" y="96" width="250" height="200" class="bg-header line" /><text x="10" y="276" class="text-md">Requerimientos del Cliente</text><rect x="250" y="96" width="48" height="200" class="bg-header line" /><text x="278" y="286" transform="rotate(-90 278 286)" class="text-sm">Imp.</text><rect x="0" y="296" width="250" height="48" class="bg-cell line" /><text x="10" y="324" class="text-req">Fácil de usar</text><rect x="250" y="296" width="48" height="48" class="bg-cell line" /><text x="274" y="324" text-anchor="middle" class="text-md">5</text><rect x="0" y="344" width="250" height="48" class="bg-cell line" /><text x="10" y="372" class="text-req">Duradero</text><rect x="250" y="344" width="48" height="48" class="bg-cell line" /><text x="274" y="372" text-anchor="middle" class="text-md">4</text><rect x="0" y="392" width="250" height="48" class="bg-cell line" /><text x="10" y="420" class="text-req">Económico</text><rect x="250" y="392" width="48" height="48" class="bg-cell line" /><text x="274" y="420" text-anchor="middle" class="text-md">3</text></g><g id="matrix"><rect x="298" y="296" width="64" height="48" class="bg-cell line" /><text x="330" y="325" text-anchor="middle" class="text-md">3</text><rect x="362" y="296" width="64" height="48" class="bg-cell line" /><rect x="426" y="296" width="64" height="48" class="bg-cell line" /><rect x="298" y="344" width="64" height="48" class="bg-cell line" /><rect x="362" y="344" width="64" height="48" class="bg-cell line" /><text x="394" y="373" text-anchor="middle" class="text-md">9</text><rect x="426" y="344" width="64" height="48" class="bg-cell line" /><rect x="298" y="392" width="64" height="48" class="bg-cell line" /><rect x="362" y="392" width="64" height="48" class="bg-cell line" /><rect x="426" y="392" width="64" height="48" class="bg-cell line" /><text x="458" y="421" text-anchor="middle" class="text-md">9</text></g><g id="competitors"><rect x="490" y="96" width="64" height="200" class="bg-header line" /><text x="526" y="286" transform="rotate(-90 526 286)" class="text-sm">Nuestro</text><rect x="490" y="296" width="64" height="48" fill="#b1d580" class="line" /><text x="522" y="325" text-anchor="middle" class="text-md">4</text><rect x="490" y="344" width="64" height="48" fill="#ffffff" class="line" /><rect x="490" y="392" width="64" height="48" fill="#ffffff" class="line" /><rect x="554" y="96" width="64" height="200" class="bg-header line" /><text x="590" y="286" transform="rotate(-90 590 286)" class="text-sm">Comp. A</text><rect x="554" y="296" width="64" height="48" fill="#ffeb84" class="line" /><text x="586" y="325" text-anchor="middle" class="text-md">3</text><rect x="554" y="344" width="64" height="48" fill="#ffffff" class="line" /><rect x="554" y="392" width="64" height="48" fill="#ffffff" class="line" /></g></svg>
