<?xml version="1.0" encoding="UTF-8" standalone="no"?>
<svg xmlns="http://www.w3.org/2000/svg" viewBox="0 0 868 632" width="868" height="632" text-rendering="geometricPrecision"><rect x="0" y="0" width="868" height="632" fill="white" /><style>
      svg { font-family: Arial, sans-serif; }
      .line { stroke: #cbd5e1; stroke-width: 1; }
      .line-dash { stroke: #e2e8f0; stroke-width: 1; stroke-dasharray: 4 4; }
      .text-sm { font-size: 12px; fill: #334155; }
      .text-xs { font-size: 10px; fill: #64748b; }
      .text-md { font-size: 14px; fill: #1e293b; font-weight: bold; }
      .text-req { font-size: 13px; fill: #334155; }
      .bg-header { fill: #f8fafc; }
      .bg-footer { fill: #f1f5f9; }
      .bg-cell { fill: #ffffff; }
    </style><g id="roof"><line x1="298" y1="96" x2="394" y2="0" class="line" /><line x1="298" y1="96" x2="298" y2="96" class="line" /><line x1="362" y1="96" x2="426" y2="32" class="line" /><line x1="362" y1="96" x2="330" y2="64" class="line" /><line x1="426" y1="96" x2="458" y2="64" class="line" /><line x1="426" y1="96" x2="362" y2="32" class="line" /><line x1="490" y1="96" x2="490" y2="96" class="line" /><line x1="490" y1="96" x2="394" y2="0" class="line" /><text x="362" y="69" text-anchor="middle" class="text-md">-3</text><text x="426" y="69" text-anchor="middle" class="text-md">9</text></g><g id="top-left-header"><rect x="0" y="96" width="298" height="200" class="bg-header line" /><line x1="0" y1="96" x2="298" y2="296" class="line" /><text x="283" y="126" text-anchor="end" class="text-md">CÓMO</text><text x="15" y="276" class="text-md">QUÉ</text></g><g id="headers"><rect x="298" y="96" width="64" height="200" class="bg-header line" /><text x="330" y="126" text-anchor="middle" class="text-md" fill="#e11d48">↓</text><text x="334" y="286" transform="rotate(-90 334 286)" class="text-sm">Peso</text><rect x="362" y="96" width="64" height="200" class="bg-header line" /><text x="394" y="126" text-anchor="middle" class="text-md" fill="#059669">↑</text><text x="398" y="286" transform="rotate(-90 398 286)" class="text-sm">Resistencia material</text><rect x="426" y="96" width="64" height="200" class="bg-header line" /><text x="458" y="126" text-anchor="middle" class="text-md" fill="#e11d48">↓</text><text x="462" y="286" transform="rotate(-90 462 286)" class="text-sm">Costo de producción</text></g><g id="comp-headers"><rect x="490" y="96" width="378" height="50" class="bg-header line" /><text x="679" y="126" text-anchor="middle" class="text-md">Evaluación Competitiva</text><rect x="490" y="146" width="64" height="150" class="bg-header line" /><text x="526" y="286" transform="rotate(-90 526 286)" class="text-sm">Nuestro</text><rect x="554" y="146" width="64" height="150" class="bg-header line" /><text x="590" y="286" transform="rotate(-90 590 286)" class="text-sm">Comp. A</text><rect x="618" y="146" width="250" height="150" class="bg-header line" /><text x="743" y="171" text-anchor="middle" class="text-sm">Perfil Competitivo</text><text x="643" y="286" text-anchor="middle" class="text-xs font-bold">1</text><text x="693" y="286" text-anchor="middle" class="text-xs font-bold">2</text><text x="743" y="286" text-anchor="middle" class="text-xs font-bold">3</text><text x="793" y="286" text-anchor="middle" class="text-xs font-bold">4</text><text x="843" y="286" text-anchor="middle" class="text-xs font-bold">5</text></g><g id="matrix-body"><rect x="0" y="296" width="250" height="48" class="bg-cell line" /><text x="10" y="324" class="text-req">Fácil de usar</text><rect x="250" y="296" width="48" height="48" class="bg-cell line" /><text x="274" y="324" text-anchor="middle" class="text-md">5</text><rect x="298" y="296" width="64" height="48" class="bg-cell line" /><text x="330" y="325" text-anchor="middle" class="text-md">3</text><rect x="362" y="296" width="64" height="48" class="bg-cell line" /><rect x="426" y="296" width="64" height="48" class="bg-cell line" /><rect x="490" y="296" width="64" height="48" fill="#ecfccb" class="line" /><text x="522" y="325" text-anchor="middle" class="text-md">4</text><rect x="554" y="296" width="64" height="48" fill="#fef9c3" class="line" /><text x="586" y="325" text-anchor="middle" class="text-md">3</text><rect x="618" y="296" width="250" height="48" class="bg-cell line" /><line x1="643" y1="296" x2="643" y2="344" class="line-dash" /><line x1="693" y1="296" x2="693" y2="344" class="line-dash" /><line x1="743" y1="296" x2="743" y2="344" class="line-dash" /><line x1="793" y1="296" x2="793" y2="344" class="line-dash" /><line x1="843" y1="296" x2="843" y2="344" class="line-dash" /><rect x="0" y="344" width="250" height="48" class="bg-cell line" /><text x="10" y="372" class="text-req">Duradero</text><rect x="250" y="344" width="48" height="48" class="bg-cell line" /><text x="274" y="372" text-anchor="middle" class="text-md">4</text><rect x="298" y="344" width="64" height="48" class="bg-cell line" /><rect x="362" y="344" width="64" height="48" class="bg-cell line" /><text x="394" y="373" text-anchor="middle" class="text-md">9</text><rect x="426" y="344" width="64" height="48" class="bg-cell line" /><rect x="490" y="344" width="64" height="48" fill="#ffffff" class="line" /><rect x="554" y="344" width="64" height="48" fill="#ffffff" class="line" /><rect x="618" y="344" width="250" height="48" class="bg-cell line" /><line x1="643" y1="344" x2="643" y2="392" class="line-dash" /><line x1="693" y1="344" x2="693" y2="392" class="line-dash" /><line x1="743" y1="344" x2="743" y2="392" class="line-dash" /><line x1="793" y1="344" x2="793" y2="392" class="line-dash" /><line x1="843" y1="344" x2="843" y2="392" class="line-dash" /><rect x="0" y="392" width="250" height="48" class="bg-cell line" /><text x="10" y="420" class="text-req">Económico</text><rect x="250" y="392" width="48" height="48" class="bg-cell line" /><text x="274" y="420" text-anchor="middle" class="text-md">3</text><rect x="298" y="392" width="64" height="48" class="bg-cell line" /><rect x="362" y="392" width="64" height="48" class="bg-cell line" /><rect x="426" y="392" width="64" height="48" class="bg-cell line" /><text x="458" y="421" text-anchor="middle" class="text-md">9</text><rect x="490" y="392" width="64" height="48" fill="#ffffff" class="line" /><rect x="554" y="392" width="64" height="48" fill="#ffffff" class="line" /><rect x="618" y="392" width="250" height="48" class="bg-cell line" /><line x1="643" y1="392" x2="643" y2="440" class="line-dash" /><line x1="693" y1="392" x2="693" y2="440" class="line-dash" /><line x1="743" y1="392" x2="743" y2="440" class="line-dash" /><line x1="793" y1="392" x2="793" y2="440" class="line-dash" /><line x1="843" y1="392" x2="843" y2="440" class="line-dash" /></g><g id="profile-lines"><polygon points="793,314 799,325 787,325" fill="#3b82f6" /><circle cx="743" cy="320" r="5" fill="#8b5cf6" /></g><rect x="0" y="440" width="298" height="48" class="bg-footer line" /><text x="288" y="469" text-anchor="end" class="text-md">Valores Objetivo</text><rect x="298" y="440" width="64" height="48" fill="#ffffff" class="line" /><text x="330" y="469" text-anchor="middle" class="text-sm">&lt; 2.5</text><rect x="362" y="440" width="64" height="48" fill="#ffffff" class="line" /><text x="394" y="469" text-anchor="middle" class="text-sm">&gt; 250</text><rect x="426" y="440" width="64" height="48" fill="#ffffff" class="line" /><text x="458" y="469" text-anchor="middle" class="text-sm">&lt; 15</text><rect x="490" y="440" width="378" height="48" class="bg-footer line" /><rect x="0" y="488" width="298" height="48" class="bg-footer line" /><text x="288" y="517" text-anchor="end" class="text-md">Unidades de Medida</text><rect x="298" y="488" width="64" height="48" fill="#ffffff" class="line" /><text x="330" y="517" text-anchor="middle" class="text-sm">kg</text><rect x="362" y="488" width="64" height="48" fill="#ffffff" class="line" /><text x="394" y="517" text-anchor="middle" class="text-sm">MPa</text><rect x="426" y="488" width="64" height="48" fill="#ffffff" class="line" /><text x="458" y="517" text-anchor="middle" class="text-sm">USD</text><rect x="490" y="488" width="378" height="48" class="bg-footer line" /><rect x="0" y="536" width="298" height="48" class="bg-footer line" /><text x="288" y="565" text-anchor="end" class="text-md">Importancia Absoluta</text><rect x="298" y="536" width="64" height="48" fill="#ffffff" class="line" /><text x="330" y="565" text-anchor="middle" class="text-sm">15</text><rect x="362" y="536" width="64" height="48" fill="#ffffff" class="line" /><text x="394" y="565" text-anchor="middle" class="text-sm">36</text><rect x="426" y="536" width="64" height="48" fill="#ffffff" class="line" /><text x="458" y="565" text-anchor="middle" class="text-sm">27</text><rect x="490" y="536" width="378" height="48" class="bg-footer line" /><rect x="0" y="584" width="298" height="48" class="bg-footer line" /><text x="288" y="613" text-anchor="end" class="text-md">Importancia Relativa (%)</text><rect x="298" y="584" width="64" height="48" fill="rgb(248, 105, 107)" class="line" /><text x="330" y="613" text-anchor="middle" class="text-sm">19.2%</text><rect x="362" y="584" width="64" height="48" fill="rgb(99, 190, 123)" class="line" /><text x="394" y="613" text-anchor="middle" class="text-sm">46.2%</text><rect x="426" y="584" width="64" height="48" fill="rgb(255, 235, 132)" class="line" /><text x="458" y="613" text-anchor="middle" class="text-sm">34.6%</text><rect x="490" y="584" width="378" height="48" class="bg-footer line" /></svg>
